<svg xmlns="http://www.w3.org/2000/svg" width="1440" height="900"><path d="M730,449L980,697L998,471Z" fill="#767676" stroke="#767676" stroke-width="1.51"/><path d="M730,449L723,734L980,697Z" fill="#727272" stroke="#727272" stroke-width="1.51"/><path d="M998,471L990,192L730,449Z" fill="#919191" stroke="#919191" stroke-width="1.51"/><path d="M1269,715L1228,434L998,471Z" fill="#5a5a5a" stroke="#5a5a5a" stroke-width="1.51"/><path d="M1228,434L990,192L998,471Z" fill="#818181" stroke="#818181" stroke-width="1.51"/><path d="M723,734L957,983L980,697Z" fill="#494949" stroke="#494949" stroke-width="1.51"/><path d="M980,697L1269,715L998,471Z" fill="#585858" stroke="#585858" stroke-width="1.51"/><path d="M990,192L720,177L730,449Z" fill="#a8a8a8" stroke="#a8a8a8" stroke-width="1.51"/><path d="M730,449L466,730L723,734Z" fill="#818181" stroke="#818181" stroke-width="1.51"/><path d="M437,444L466,730L730,449Z" fill="#9a9a9a" stroke="#9a9a9a" stroke-width="1.51"/><path d="M723,734L482,988L733,971Z" fill="#505050" stroke="#505050" stroke-width="1.51"/><path d="M733,971L957,983L723,734Z" fill="#424242" stroke="#424242" stroke-width="1.51"/><path d="M720,177L437,444L730,449Z" fill="#b0b0b0" stroke="#b0b0b0" stroke-width="1.51"/><path d="M1250,973L1269,715L980,697Z" fill="#2f2f2f" stroke="#2f2f2f" stroke-width="1.51"/><path d="M1228,434L1249,209L990,192Z" fill="#818181" stroke="#818181" stroke-width="1.51"/><path d="M1489,429L1249,209L1228,434Z" fill="#636363" stroke="#636363" stroke-width="1.51"/><path d="M733,971L962,1239L957,983Z" fill="#3b3b3b" stroke="#3b3b3b" stroke-width="1.51"/><path d="M466,730L482,988L723,734Z" fill="#656565" stroke="#656565" stroke-width="1.51"/><path d="M200,991L482,988L466,730Z" fill="#656565" stroke="#656565" stroke-width="1.51"/><path d="M957,983L1250,973L980,697Z" fill="#2e2e2e" stroke="#2e2e2e" stroke-width="1.51"/><path d="M720,177L438,186L437,444Z" fill="#c6c6c6" stroke="#c6c6c6" stroke-width="1.51"/><path d="M1269,715L1489,429L1228,434Z" fill="#494949" stroke="#494949" stroke-width="1.51"/><path d="M1250,973L1483,731L1269,715Z" fill="#1c1c1c" stroke="#1c1c1c" stroke-width="1.51"/><path d="M1483,731L1489,429L1269,715Z" fill="#333333" stroke="#333333" stroke-width="1.51"/><path d="M173,210L212,459L437,444Z" fill="#cacaca" stroke="#cacaca" stroke-width="1.51"/><path d="M437,444L197,719L466,730Z" fill="#999999" stroke="#999999" stroke-width="1.51"/><path d="M720,177L466,-99L438,186Z" fill="#d8d8d8" stroke="#d8d8d8" stroke-width="1.51"/><path d="M961,-90L715,-75L720,177Z" fill="#c0c0c0" stroke="#c0c0c0" stroke-width="1.51"/><path d="M961,-90L720,177L990,192Z" fill="#b2b2b2" stroke="#b2b2b2" stroke-width="1.51"/><path d="M1239,-57L961,-90L990,192Z" fill="#a5a5a5" stroke="#a5a5a5" stroke-width="1.51"/><path d="M1239,-57L990,192L1249,209Z" fill="#919191" stroke="#919191" stroke-width="1.51"/><path d="M212,459L197,719L437,444Z" fill="#adadad" stroke="#adadad" stroke-width="1.51"/><path d="M712,1260L962,1239L733,971Z" fill="#424242" stroke="#424242" stroke-width="1.51"/><path d="M957,983L1245,1220L1250,973Z" fill="#232323" stroke="#232323" stroke-width="1.51"/><path d="M482,988L712,1260L733,971Z" fill="#515151" stroke="#515151" stroke-width="1.51"/><path d="M432,1229L712,1260L482,988Z" fill="#5a5a5a" stroke="#5a5a5a" stroke-width="1.51"/><path d="M1508,-55L1239,-57L1249,209Z" fill="#808080" stroke="#808080" stroke-width="1.51"/><path d="M962,1239L1245,1220L957,983Z" fill="#2d2d2d" stroke="#2d2d2d" stroke-width="1.51"/><path d="M1250,973L1528,974L1483,731Z" fill="#040504" stroke="#040504" stroke-width="1.51"/><path d="M1512,1218L1245,1220L1771,1238Z" fill="#000000" stroke="#000000" stroke-width="1.51"/><path d="M212,459L-50,731L197,719Z" fill="#a6a6a6" stroke="#a6a6a6" stroke-width="1.51"/><path d="M438,186L173,210L437,444Z" fill="#d2d2d2" stroke="#d2d2d2" stroke-width="1.51"/><path d="M189,-61L173,210L438,186Z" fill="#eaeaea" stroke="#eaeaea" stroke-width="1.51"/><path d="M715,-75L466,-99L720,177Z" fill="#d3d3d3" stroke="#d3d3d3" stroke-width="1.51"/><path d="M728,-317L466,-99L715,-75Z" fill="#d3d3d3" stroke="#d3d3d3" stroke-width="1.51"/><path d="M197,719L200,991L466,730Z" fill="#787878" stroke="#787878" stroke-width="1.51"/><path d="M-50,980L200,991L197,719Z" fill="#737373" stroke="#737373" stroke-width="1.51"/><path d="M200,991L432,1229L482,988Z" fill="#666666" stroke="#666666" stroke-width="1.51"/><path d="M1489,429L1527,176L1249,209Z" fill="#636363" stroke="#636363" stroke-width="1.51"/><path d="M1747,458L1527,176L1489,429Z" fill="#585858" stroke="#585858" stroke-width="1.51"/><path d="M1483,731L1747,458L1489,429Z" fill="#3d3d3d" stroke="#3d3d3d" stroke-width="1.51"/><path d="M1512,1218L1528,974L1250,973Z" fill="#010201" stroke="#010201" stroke-width="1.51"/><path d="M996,-354L728,-317L961,-90Z" fill="#b7b7b7" stroke="#b7b7b7" stroke-width="1.51"/><path d="M961,-90L728,-317L715,-75Z" fill="#c1c1c1" stroke="#c1c1c1" stroke-width="1.51"/><path d="M1786,713L1747,458L1483,731Z" fill="#303030" stroke="#303030" stroke-width="1.51"/><path d="M1762,-54L1508,-55L1527,176Z" fill="#767676" stroke="#767676" stroke-width="1.51"/><path d="M1527,176L1508,-55L1249,209Z" fill="#727272" stroke="#727272" stroke-width="1.51"/><path d="M1238,-330L996,-354L961,-90Z" fill="#a6a6a6" stroke="#a6a6a6" stroke-width="1.51"/><path d="M-88,467L-50,731L212,459Z" fill="#b7b7b7" stroke="#b7b7b7" stroke-width="1.51"/><path d="M173,210L-88,467L212,459Z" fill="#d2d2d2" stroke="#d2d2d2" stroke-width="1.51"/><path d="M466,-99L189,-61L438,186Z" fill="#ebebeb" stroke="#ebebeb" stroke-width="1.51"/><path d="M441,-339L189,-61L466,-99Z" fill="#ebebeb" stroke="#ebebeb" stroke-width="1.51"/><path d="M1528,974L1786,713L1483,731Z" fill="#141414" stroke="#141414" stroke-width="1.51"/><path d="M1245,1220L1512,1218L1250,973Z" fill="#0f0f0f" stroke="#0f0f0f" stroke-width="1.51"/><path d="M1771,1238L1245,1220L962,1239Z" fill="#101010" stroke="#101010" stroke-width="1.51"/><path d="M-59,1231L198,1241L200,991Z" fill="#737373" stroke="#737373" stroke-width="1.51"/><path d="M200,991L198,1241L432,1229Z" fill="#6b6b6b" stroke="#6b6b6b" stroke-width="1.51"/><path d="M432,1229L198,1241L712,1260Z" fill="#606060" stroke="#606060" stroke-width="1.51"/><path d="M1238,-330L961,-90L1239,-57Z" fill="#9a9a9a" stroke="#9a9a9a" stroke-width="1.51"/><path d="M1783,949L1786,713L1528,974Z" fill="#050505" stroke="#050505" stroke-width="1.51"/><path d="M-83,177L-88,467L173,210Z" fill="#e4e4e4" stroke="#e4e4e4" stroke-width="1.51"/><path d="M1500,-332L1238,-330L1239,-57Z" fill="#838383" stroke="#838383" stroke-width="1.51"/><path d="M-50,731L-50,980L197,719Z" fill="#858585" stroke="#858585" stroke-width="1.51"/><path d="M-304,959L-50,980L-50,731Z" fill="#797979" stroke="#797979" stroke-width="1.51"/><path d="M1771,1238L1783,949L1528,974Z" fill="#000000" stroke="#000000" stroke-width="1.51"/><path d="M728,-317L441,-339L466,-99Z" fill="#dddddd" stroke="#dddddd" stroke-width="1.51"/><path d="M996,-354L441,-339L728,-317Z" fill="#c9c9c9" stroke="#c9c9c9" stroke-width="1.51"/><path d="M1508,-55L1500,-332L1239,-57Z" fill="#797979" stroke="#797979" stroke-width="1.51"/><path d="M1747,458L1780,183L1527,176Z" fill="#616161" stroke="#616161" stroke-width="1.51"/><path d="M1786,713L1780,183L1747,458Z" fill="#494949" stroke="#494949" stroke-width="1.51"/><path d="M-49,-77L-83,177L189,-61Z" fill="#fdfdfd" stroke="#fdfdfd" stroke-width="1.51"/><path d="M189,-61L-83,177L173,210Z" fill="#f4f4f4" stroke="#f4f4f4" stroke-width="1.51"/><path d="M1780,183L1762,-54L1527,176Z" fill="#717171" stroke="#717171" stroke-width="1.51"/><path d="M1759,-337L1500,-332L1508,-55Z" fill="#777777" stroke="#777777" stroke-width="1.51"/><path d="M1238,-330L1500,-332L996,-354Z" fill="#8c8c8c" stroke="#8c8c8c" stroke-width="1.51"/><path d="M179,-345L-49,-77L189,-61Z" fill="#fafafa" stroke="#fafafa" stroke-width="1.51"/><path d="M-50,980L-59,1231L200,991Z" fill="#767676" stroke="#767676" stroke-width="1.51"/><path d="M-304,959L-59,1231L-50,980Z" fill="#777777" stroke="#777777" stroke-width="1.51"/><path d="M712,1260L1771,1238L962,1239Z" fill="#232323" stroke="#232323" stroke-width="1.51"/><path d="M1512,1218L1771,1238L1528,974Z" fill="#000000" stroke="#000000" stroke-width="1.51"/><path d="M441,-339L179,-345L189,-61Z" fill="#f1f1f1" stroke="#f1f1f1" stroke-width="1.51"/><path d="M996,-354L179,-345L441,-339Z" fill="#dedede" stroke="#dedede" stroke-width="1.51"/><path d="M-353,438L-88,467L-322,176Z" fill="#d9d9d9" stroke="#d9d9d9" stroke-width="1.51"/><path d="M-353,438L-307,707L-88,467Z" fill="#bbbbbb" stroke="#bbbbbb" stroke-width="1.51"/><path d="M-88,467L-307,707L-50,731Z" fill="#ababab" stroke="#ababab" stroke-width="1.51"/><path d="M-322,176L-88,467L-83,177Z" fill="#e6e6e6" stroke="#e6e6e6" stroke-width="1.51"/><path d="M-307,707L-304,959L-50,731Z" fill="#888888" stroke="#888888" stroke-width="1.51"/><path d="M-353,438L-304,959L-307,707Z" fill="#9e9e9e" stroke="#9e9e9e" stroke-width="1.51"/><path d="M-346,-88L-83,177L-49,-77Z" fill="#fefefe" stroke="#fefefe" stroke-width="1.51"/><path d="M-346,-88L-322,176L-83,177Z" fill="#f9f9f9" stroke="#f9f9f9" stroke-width="1.51"/><path d="M179,-345L-49,-327L-49,-77Z" fill="#fefefe" stroke="#fefefe" stroke-width="1.51"/><path d="M1780,183L1759,-337L1762,-54Z" fill="#777777" stroke="#777777" stroke-width="1.51"/><path d="M1762,-54L1759,-337L1508,-55Z" fill="#777777" stroke="#777777" stroke-width="1.51"/><path d="M1500,-332L1759,-337L996,-354Z" fill="#797979" stroke="#797979" stroke-width="1.51"/><path d="M-318,-328L-346,-88L-49,-77Z" fill="#ffffff" stroke="#ffffff" stroke-width="1.51"/><path d="M-322,176L-346,-88L-353,438Z" fill="#f1f1f1" stroke="#f1f1f1" stroke-width="1.51"/><path d="M-304,959L-340,1255L-59,1231Z" fill="#777777" stroke="#777777" stroke-width="1.51"/><path d="M-59,1231L-340,1255L198,1241Z" fill="#777777" stroke="#777777" stroke-width="1.51"/><path d="M198,1241L-340,1255L712,1260Z" fill="#707070" stroke="#707070" stroke-width="1.51"/><path d="M-353,438L-340,1255L-304,959Z" fill="#7a7a7a" stroke="#7a7a7a" stroke-width="1.51"/><path d="M179,-345L-318,-328L-49,-327Z" fill="#ffffff" stroke="#ffffff" stroke-width="1.51"/><path d="M-49,-327L-318,-328L-49,-77Z" fill="#ffffff" stroke="#ffffff" stroke-width="1.51"/></svg>